<?xml version="1.0" standalone="no"?>
<!DOCTYPE svg PUBLIC "-//W3C//DTD SVG 20010904//EN"
 "http://www.w3.org/TR/2001/REC-SVG-20010904/DTD/svg10.dtd">
<svg version="1.0" xmlns="http://www.w3.org/2000/svg"
 width="1543.000000pt" height="320.000000pt" viewBox="0 0 1543.000000 320.000000"
 preserveAspectRatio="xMidYMid meet">

<g transform="translate(0.000000,320.000000) scale(0.100000,-0.100000)"
fill="#000000" stroke="none">
<path d="M1205 3100 c-3 -5 -15 -10 -25 -10 -10 0 -23 -6 -27 -13 -4 -8 -15
-16 -24 -19 -19 -7 -32 -71 -22 -108 9 -35 42 -77 64 -83 18 -5 19 -18 17
-289 l-3 -283 -167 -3 -168 -2 0 -169 c0 -93 -3 -176 -6 -185 -5 -14 -36 -16
-245 -16 -225 0 -239 1 -249 19 -6 12 -10 104 -10 229 l0 209 37 26 c50 36 77
111 54 148 -38 62 -63 79 -113 79 -53 0 -85 -21 -116 -74 -16 -29 -16 -35 -2
-78 11 -34 26 -55 53 -75 l37 -26 0 -258 0 -259 278 -2 277 -3 3 -359 c1 -219
-1 -363 -7 -369 -6 -6 -78 -9 -168 -8 l-158 2 -43 42 c-40 39 -45 41 -99 41
-51 -1 -59 -4 -84 -35 -23 -27 -28 -44 -28 -84 0 -53 13 -76 61 -108 51 -32
115 -14 162 48 l27 35 164 0 165 0 6 -40 7 -40 174 0 173 0 10 -26 c6 -14 10
-128 10 -254 0 -216 -1 -230 -19 -240 -12 -6 -104 -10 -229 -10 l-210 0 -30
34 c-70 80 -133 85 -204 17 -23 -22 -27 -35 -28 -77 0 -47 3 -55 36 -84 56
-49 79 -54 129 -30 24 12 54 36 66 55 l24 35 258 0 257 0 0 271 c0 167 4 278
10 290 10 17 22 19 110 19 88 0 100 -2 110 -19 5 -11 10 -76 10 -145 l0 -126
-38 -28 c-44 -31 -62 -62 -62 -108 0 -104 121 -161 200 -95 33 27 35 32 35 91
0 59 -2 63 -40 98 l-40 37 -3 120 c-2 68 1 132 7 148 l11 27 208 0 c148 0 211
-3 220 -12 8 -8 12 -55 12 -146 l0 -134 -42 -38 c-41 -36 -42 -39 -43 -97 0
-45 4 -64 19 -78 43 -43 100 -56 148 -34 26 11 78 87 78 112 0 31 -35 83 -72
110 l-38 27 0 128 c0 146 5 159 65 164 l40 3 5 170 5 170 224 3 c132 1 229 -2
234 -7 5 -5 10 -103 10 -225 0 -214 -5 -246 -36 -246 -19 0 -45 -41 -52 -80
-14 -85 33 -140 120 -140 44 0 105 34 105 59 0 9 5 22 11 28 9 9 8 24 -2 58
-14 47 -25 61 -63 80 -20 10 -21 17 -26 270 l-5 260 -253 1 c-146 1 -258 6
-263 11 -5 5 -8 57 -7 114 l3 104 118 3 119 3 38 -43 c36 -41 40 -43 93 -42
61 0 87 16 113 66 24 47 18 81 -27 132 -34 38 -47 46 -75 46 -41 0 -110 -40
-119 -70 -9 -27 -32 -31 -155 -28 l-105 3 -5 208 c-3 115 -2 217 2 228 7 17
18 19 118 19 l111 0 46 -45 c42 -41 49 -45 96 -45 44 0 54 4 83 34 57 59 57
115 -1 173 -28 28 -40 33 -80 33 -42 0 -52 -5 -88 -40 l-40 -41 -119 0 c-65
-1 -122 1 -125 5 -3 3 -6 20 -7 38 l-1 33 -181 3 -182 2 -7 27 c-11 46 -3 402
10 420 11 14 41 17 211 19 212 3 243 -1 264 -42 17 -31 63 -54 111 -54 43 0
87 36 109 90 11 27 10 36 -6 72 -28 63 -49 78 -110 78 -42 0 -59 -5 -83 -26
-17 -14 -31 -32 -31 -40 0 -12 -44 -14 -265 -14 l-265 0 0 -246 c0 -150 -4
-253 -10 -265 -10 -18 -24 -19 -239 -19 -182 0 -231 3 -240 14 -8 9 -11 92 -9
282 3 260 4 269 23 278 31 14 75 80 74 113 -1 44 -31 86 -80 110 -51 25 -56
26 -64 13z m73 -88 c32 -43 -18 -110 -71 -96 -15 3 -32 15 -38 26 -15 27 -3
85 19 92 29 8 76 -3 90 -22z m1137 -168 c11 -3 26 -17 32 -31 11 -22 10 -32
-5 -62 -15 -31 -21 -36 -47 -33 -41 5 -65 29 -65 66 0 54 30 75 85 60z m-2071
-275 c41 -19 43 -107 2 -122 -30 -12 -73 4 -85 30 -15 32 2 90 27 96 28 8 30
7 56 -4z m1763 -344 c10 -3 13 -129 13 -589 0 -334 -4 -587 -9 -590 -12 -8
-1164 -8 -1184 0 -22 8 -23 23 -17 638 5 497 6 539 22 545 20 7 1157 4 1175
-4z m496 -16 c23 -25 22 -58 -5 -86 -25 -27 -69 -30 -88 -7 -8 8 -14 34 -14
57 -1 33 3 43 22 53 28 14 61 8 85 -17z m0 -517 c38 -33 6 -102 -48 -102 -66
0 -89 69 -39 115 28 26 45 23 87 -13z m-2173 -560 c34 -27 22 -84 -22 -105
-29 -14 -35 -14 -61 1 -25 15 -28 22 -25 62 3 37 7 45 28 51 42 12 57 10 80
-9z m2294 -343 c31 -36 32 -46 7 -78 -13 -17 -29 -24 -51 -24 -60 0 -80 64
-35 108 32 33 48 31 79 -6z m-1136 -230 c3 -40 0 -48 -22 -62 -28 -19 -50 -14
-83 16 -27 24 -29 39 -7 73 15 22 23 25 63 22 l46 -3 3 -46z m514 34 c25 -23
22 -83 -5 -83 -6 0 -18 -7 -28 -16 -16 -15 -20 -14 -48 2 -25 15 -31 25 -31
54 0 20 5 41 12 48 17 17 78 15 100 -5z m-1424 -131 c6 -9 12 -28 12 -43 0
-44 -51 -69 -101 -49 -26 11 -29 17 -29 55 0 34 4 44 23 52 28 14 78 5 95 -15z"/>
<path d="M1055 2088 c-3 -7 -4 -215 -3 -463 l3 -450 463 -3 c435 -2 462 -1
463 15 0 25 0 885 0 901 -1 9 -100 12 -461 12 -359 0 -462 -3 -465 -12z m864
-53 c7 -7 11 -148 11 -400 l1 -390 -22 -12 c-29 -15 -768 -16 -786 -1 -18 15
-19 788 -1 806 15 15 782 12 797 -3z"/>
<path d="M4402 2491 c-60 -21 -118 -70 -138 -118 -16 -37 -19 -140 -5 -176 21
-54 75 -100 171 -145 130 -60 162 -85 158 -124 -5 -50 -46 -73 -126 -72 -68 1
-158 30 -183 60 -23 28 -29 12 -29 -77 l0 -90 38 -17 c29 -13 68 -17 182 -17
136 0 148 2 195 26 99 50 142 148 115 260 -18 75 -66 119 -191 178 -150 71
-182 116 -116 165 40 29 152 28 221 -2 27 -12 50 -22 52 -22 2 0 4 38 4 84 l0
84 -44 11 c-72 18 -242 13 -304 -8z"/>
<path d="M5497 2499 c-107 -25 -217 -122 -258 -227 -33 -83 -33 -252 -1 -334
85 -214 369 -296 569 -163 60 40 92 79 130 160 26 55 28 70 28 180 0 114 -2
123 -31 185 -49 101 -115 160 -215 191 -64 20 -157 23 -222 8z m184 -162 c34
-18 51 -36 73 -81 25 -48 30 -69 30 -139 1 -101 -20 -162 -74 -211 -100 -90
-262 -37 -300 100 -20 72 -16 172 9 230 28 62 47 83 96 105 55 25 113 24 166
-4z"/>
<path d="M7265 2503 c-11 -2 -39 -11 -62 -19 l-43 -16 0 -69 0 -69 43 22 c31
16 60 22 110 23 63 0 71 -2 93 -28 27 -31 31 -81 10 -109 -21 -28 -81 -48
-146 -48 l-60 0 0 -64 0 -63 78 -6 c122 -8 162 -36 162 -115 0 -98 -145 -133
-273 -67 l-48 24 3 -76 3 -76 40 -15 c27 -10 77 -16 150 -16 95 -1 117 3 162
23 184 82 192 310 15 378 l-43 16 33 14 c71 30 109 88 110 167 1 90 -49 152
-144 181 -48 14 -147 18 -193 8z"/>
<path d="M8035 2494 c-24 -19 -164 -89 -195 -97 -19 -5 -21 -11 -18 -74 l3
-68 30 3 c24 3 72 21 128 50 4 2 7 -129 7 -292 l0 -296 85 0 85 0 0 395 0 395
-52 0 c-33 -1 -61 -7 -73 -16z"/>
<path d="M3230 2110 l0 -390 81 0 82 0 -5 317 c-3 254 -2 307 7 266 7 -29 54
-171 105 -317 l94 -266 72 0 72 0 96 283 c52 155 99 297 103 315 5 18 7 -110
5 -283 l-4 -315 86 0 86 0 0 390 0 390 -123 0 -122 0 -82 -237 c-45 -131 -87
-259 -94 -284 l-12 -45 -95 283 -95 283 -129 0 -128 0 0 -390z"/>
<path d="M4910 2110 l0 -390 85 0 85 0 0 390 0 390 -85 0 -85 0 0 -390z"/>
<path d="M5990 2430 l0 -70 110 0 110 0 0 -320 0 -320 85 0 85 0 0 320 0 320
110 0 110 0 0 70 0 70 -305 0 -305 0 0 -70z"/>
<path d="M6700 2020 l0 -60 145 0 145 0 0 60 0 60 -145 0 -145 0 0 -60z"/>
<path d="M6956 1356 c-58 -22 -87 -56 -93 -109 -8 -70 20 -108 112 -152 80
-38 102 -63 85 -94 -20 -38 -102 -38 -167 0 l-33 18 0 -49 c0 -60 14 -70 104
-77 112 -9 187 27 206 98 21 77 -19 137 -120 182 -87 38 -104 78 -45 106 29
14 87 8 138 -14 15 -6 17 -1 17 38 0 25 -5 49 -12 53 -23 15 -152 15 -192 0z"/>
<path d="M3230 1130 l0 -230 51 0 51 0 -4 179 -3 178 38 -111 c21 -61 49 -140
61 -176 l23 -65 44 -3 44 -3 63 183 62 183 0 -182 0 -183 50 0 50 0 0 230 0
230 -74 0 -74 0 -30 -82 c-16 -46 -42 -120 -56 -166 l-28 -82 -56 165 -56 165
-78 0 -78 0 0 -230z"/>
<path d="M3975 1343 c-27 -71 -155 -427 -155 -434 0 -5 24 -9 53 -9 l53 0 15
48 15 47 84 0 84 0 15 -47 15 -48 57 0 58 0 -45 128 c-25 70 -62 173 -82 230
l-36 102 -62 0 c-50 0 -63 -3 -69 -17z m97 -175 l24 -83 -28 -3 c-15 -2 -41
-2 -56 0 l-28 3 24 83 c14 45 28 82 32 82 4 0 18 -37 32 -82z"/>
<path d="M4320 1130 l0 -230 55 0 55 0 0 107 0 107 73 -107 72 -107 63 0 c34
0 62 2 62 5 0 3 -36 55 -80 115 -44 60 -80 115 -80 121 0 7 24 44 53 83 29 39
63 86 76 104 l22 32 -60 0 -61 0 -67 -102 -68 -101 -3 101 -3 102 -54 0 -55 0
0 -230z"/>
<path d="M4750 1130 l0 -230 140 0 140 0 0 40 0 40 -85 0 -85 0 0 55 0 55 75
0 75 0 0 40 0 40 -75 0 -75 0 0 55 0 55 80 0 80 0 0 40 0 40 -135 0 -135 0 0
-230z"/>
<path d="M5280 1130 l0 -230 55 0 55 0 0 230 0 230 -55 0 -55 0 0 -230z"/>
<path d="M5450 1320 l0 -40 65 0 65 0 0 -190 0 -190 55 0 55 0 0 190 0 190 65
0 65 0 0 40 0 40 -185 0 -185 0 0 -40z"/>
<path d="M6060 1130 l0 -230 140 0 140 0 0 40 0 40 -85 0 -85 0 0 55 0 55 75
0 75 0 0 40 0 40 -75 0 -75 0 0 55 0 55 80 0 80 0 0 40 0 40 -135 0 -135 0 0
-230z"/>
<path d="M6535 1343 c-27 -71 -155 -427 -155 -434 0 -5 24 -9 53 -9 l53 0 15
48 15 47 84 0 84 0 15 -47 15 -48 57 0 58 0 -45 128 c-25 70 -62 173 -82 230
l-36 102 -62 0 c-50 0 -63 -3 -69 -17z m97 -175 l24 -83 -28 -3 c-15 -2 -41
-2 -56 0 l-28 3 24 83 c14 45 28 82 32 82 4 0 18 -37 32 -82z"/>
<path d="M7275 1209 c74 -150 75 -152 75 -230 l0 -79 50 0 50 0 0 80 c0 80 0
81 75 231 l76 150 -57 -3 -56 -3 -42 -97 -42 -97 -41 97 -41 97 -61 3 -61 3
75 -152z"/>
</g>
</svg>
